<?xml version="1.0" encoding="UTF-8"?><svg id="Layer_1" xmlns="http://www.w3.org/2000/svg" viewBox="0 0 507.32 164.21"><defs><style>.cls-1{fill:#fff;}.cls-2{fill:#2cc978;}.cls-3{fill:#ff0;}</style></defs><rect class="cls-2" x="31.51" y="6.15" width="99.14" height="88.14" rx="41.97" ry="41.97"/><path class="cls-1" d="m88.68,11.15c20.38,0,36.97,16.58,36.97,36.97v4.2c0,20.38-16.58,36.97-36.97,36.97h-15.2c-20.38,0-36.97-16.58-36.97-36.97v-4.2c0-20.38,16.58-36.97,36.97-36.97h15.2m0-10h-15.2c-25.83,0-46.97,21.13-46.97,46.97v4.2c0,25.83,21.13,46.97,46.97,46.97h15.2c25.83,0,46.97-21.13,46.97-46.97v-4.2c0-25.83-21.13-46.97-46.97-46.97h0Z"/><rect class="cls-2" x="161.71" y="6.15" width="100.57" height="89.43" rx="42.58" ry="42.58"/><path class="cls-1" d="m219.69,11.15c20.72,0,37.59,16.86,37.59,37.59v4.26c0,20.72-16.86,37.59-37.59,37.59h-15.4c-20.72,0-37.59-16.86-37.59-37.59v-4.26c0-20.72,16.86-37.59,37.59-37.59h15.4m0-10h-15.4c-26.17,0-47.59,21.41-47.59,47.59v4.26c0,26.17,21.41,47.59,47.59,47.59h15.4c26.17,0,47.59-21.41,47.59-47.59v-4.26c0-26.17-21.41-47.59-47.59-47.59h0Z"/><path class="cls-2" d="m18.42,52.55v-4.55c0-16.51,7.52-31.35,19.31-41.26h-2.64C17.26,6.73,2.67,21.32,2.67,39.15v23.54c0,17.83,14.59,32.42,32.42,32.42h4.24c-12.7-9.89-20.91-25.31-20.91-42.56Z"/><path class="cls-2" d="m167.27,6.73h-43.1c11.78,9.92,19.31,24.75,19.31,41.26v4.55c0,17.25-8.21,32.66-20.91,42.56h47.68c-13.11-9.87-21.63-25.55-21.63-43.13v-4.55c0-16.2,7.25-30.79,18.65-40.7Z"/><path class="cls-2" d="m262.18,6.73h-7.17c11.4,9.91,18.65,24.49,18.65,40.7v4.55c0,17.58-8.52,33.26-21.63,43.13h10.15c17.83,0,32.42-14.59,32.42-32.42v-23.54c0-17.83-14.59-32.42-32.42-32.42Z"/><path class="cls-2" d="m75.75,76.12c-14.37,0-26.06-11.69-26.06-26.06s11.69-26.06,26.06-26.06h10.57c9.05,0,17.04,4.64,21.71,11.66-2.91-3.65-7.39-6-12.42-6-8.75,0-15.86,7.11-15.86,15.86v10.85c0,8.75,7.11,15.86,15.86,15.86,2.24,0,4.38-.47,6.31-1.31-4.35,3.27-9.76,5.2-15.61,5.2h-10.57Zm35.72-19.2c0-.18,0-.37,0-.55v-10.85c0-1.3-.16-2.56-.45-3.76.88,2.61,1.36,5.4,1.36,8.31,0,2.37-.32,4.67-.92,6.86Z"/><path class="cls-1" d="m82.89,29c-4.94,3.82-8.13,9.8-8.13,16.52v10.85c0,5.76,2.34,10.97,6.13,14.75h-5.13c-11.61,0-21.06-9.45-21.06-21.06s9.45-21.06,21.06-21.06h7.14m3.43-10h-10.57c-17.08,0-31.06,13.98-31.06,31.06h0c0,17.08,13.98,31.06,31.06,31.06h10.57c17.08,0,31.06-13.98,31.06-31.06h0c0-17.08-13.98-31.06-31.06-31.06h0Zm9.29,48.23c-5.97,0-10.86-4.89-10.86-10.86v-10.85c0-5.97,4.89-10.86,10.86-10.86h0c5.97,0,10.86,4.89,10.86,10.86v10.85c0,5.97-4.89,10.86-10.86,10.86h0Z"/><path class="cls-2" d="m217.3,19.23h-10.71c-17.31,0-31.47,14.16-31.47,31.47h0c0,17.31,14.16,31.47,31.47,31.47h10.71c17.31,0,31.47-14.16,31.47-31.47h0c0-17.31-14.16-31.47-31.47-31.47Zm20.81,38.25c0,6.05-4.95,11-11,11s-11-4.95-11-11v-11c0-6.05,4.95-11,11-11s11,4.95,11,11v11Z"/><path class="cls-2" d="m32.54,133.57c-.84,0-1.21-.37-1.21-1.21v-21.7c0-.84.37-1.21,1.21-1.21h10.25c6.1,0,7.9,2.65,7.9,6.53v4.29c0,3.89-1.81,6.53-7.9,6.53h-3.85v5.56c0,.84-.37,1.21-1.21,1.21h-5.19Zm6.33-12.79h3.01c1.31,0,1.57-.77,1.57-1.64v-1.78c0-.87-.27-1.64-1.57-1.64h-3.01v5.06Z"/><path class="cls-2" d="m58.73,133.57c-.84,0-1.21-.37-1.21-1.21v-21.7c0-.84.37-1.21,1.21-1.21h15.54c.84,0,1.21.37,1.21,1.21v3.92c0,.84-.37,1.21-1.21,1.21h-9.24v2.58h6.53c.84,0,1.21.37,1.21,1.21v3.58c0,.84-.37,1.21-1.21,1.21h-6.53v2.88h9.24c.84,0,1.21.37,1.21,1.21v3.92c0,.84-.37,1.21-1.21,1.21h-15.54Z"/><path class="cls-2" d="m88.4,133.57h-4.92c-.84,0-1.21-.37-1.21-1.21v-8.84c0-1.34.4-3.01,1.31-5.36l2.91-7.6c.27-.77.8-1.11,1.71-1.11h9.01c.87,0,1.41.33,1.67,1.11l2.91,7.6c.9,2.34,1.31,4.02,1.31,5.36v8.84c0,.84-.37,1.21-1.21,1.21h-5.06c-.9,0-1.31-.37-1.31-1.21v-4.69h-5.93v4.69c0,.84-.37,1.21-1.21,1.21Zm1.54-11.99h5.26l-1.57-5.09c-.17-.4-.37-.57-.64-.57h-.84c-.27,0-.47.17-.64.57l-1.57,5.09Z"/><path class="cls-2" d="m111.78,133.57c-.84,0-1.21-.37-1.21-1.21v-21.7c0-.84.37-1.21,1.21-1.21h5.19c.84,0,1.21.37,1.21,1.21v7.7h1.34l3.45-7.8c.33-.8.8-1.11,1.67-1.11h5.16c.77,0,1.04.4.74,1.11l-3.42,7.8c2.51.13,4.12,1.88,4.12,4.56v9.44c0,.84-.37,1.21-1.21,1.21h-5.16c-.84,0-1.21-.37-1.21-1.21v-6.53c0-.74-.37-1.14-1.07-1.14h-4.42v7.67c0,.84-.37,1.21-1.21,1.21h-5.19Z"/><path class="cls-2" d="m144.29,133.57c-.87,0-1.37-.27-1.71-1.11l-3.28-8.21c-.8-2.01-1.07-2.65-1.07-4.76v-8.84c0-.84.37-1.21,1.21-1.21h5.33c.84,0,1.31.37,1.31,1.21v9.24c0,.47.1.87.27,1.37l1.57,4.69c.13.43.27.57.64.57h.37c.37,0,.5-.13.64-.57l1.57-4.72c.17-.5.27-.9.27-1.37v-9.21c0-.84.37-1.21,1.21-1.21h5.26c.87,0,1.21.37,1.21,1.21v8.84c0,2.11-.27,2.75-1.07,4.76l-3.28,8.21c-.33.84-.84,1.11-1.71,1.11h-8.71Z"/><path class="cls-2" d="m165.99,132.36v-3.99c0-.84.37-1.21,1.21-1.21h3.32v-11.25h-3.32c-.84,0-1.21-.37-1.21-1.21v-4.05c0-.84.37-1.21,1.21-1.21h14.27c.84,0,1.21.37,1.21,1.21v4.05c0,.84-.37,1.21-1.21,1.21h-3.25v11.25h3.25c.84,0,1.21.37,1.21,1.21v3.99c0,.84-.37,1.21-1.21,1.21h-14.27c-.84,0-1.21-.37-1.21-1.21Z"/><path class="cls-2" d="m190.74,133.57c-.84,0-1.21-.37-1.21-1.21v-3.92c0-.84.37-1.21,1.21-1.21h9.01c.57,0,.87-.44.87-.97,0-.77-.3-1.07-.87-1.14l-5.02-.7c-3.15-.47-5.19-1.81-5.19-5.56v-3.52c0-3.82,2.58-5.9,6.93-5.9h9.38c.84,0,1.21.37,1.21,1.21v3.99c0,.84-.37,1.21-1.21,1.21h-7.8c-.57,0-.9.4-.9,1s.33,1,.9,1.07l4.99.67c3.15.47,5.22,1.81,5.22,5.56v3.52c0,3.82-2.61,5.89-6.93,5.89h-10.58Z"/><path class="cls-2" d="m225.3,134.07c-8.37,0-10.42-2.75-10.42-6.83v-11.42c0-4.09,2.04-6.87,10.42-6.87s10.38,2.78,10.38,6.87v11.42c0,4.09-2.01,6.83-10.38,6.83Zm0-6.46c2.44,0,2.81-.67,2.81-1.57v-9.01c0-.87-.37-1.54-2.81-1.54s-2.81.67-2.81,1.54v9.01c0,.9.4,1.57,2.81,1.57Z"/><path class="cls-2" d="m244.49,133.57c-.84,0-1.21-.37-1.21-1.21v-21.7c0-.84.37-1.21,1.21-1.21h11.15c5.02,0,6.6,2.28,6.6,5.59v1.54c0,1.88-.47,3.22-1.88,3.82,2.45.27,4.05,2.04,4.05,4.86v7.1c0,.84-.37,1.21-1.21,1.21h-5.19c-.84,0-1.21-.37-1.21-1.21v-5.12c0-1-.33-1.44-1.27-1.44h-4.69v6.56c0,.84-.37,1.21-1.21,1.21h-5.16Zm6.36-13.8h2.51c1.17,0,1.47-.67,1.47-1.57v-1.14c0-.9-.3-1.57-1.47-1.57h-2.51v4.29Z"/><rect class="cls-2" x="312.85" width="170.23" height="135.81" rx="28.24" ry="28.24"/><path class="cls-3" d="m389.02,87.96c0,.49-.18.92-.54,1.27-.36.36-.78.54-1.27.54h-5.29c-.49,0-.92-.18-1.27-.54-.36-.36-.54-.78-.54-1.27v-5.49c0-.49-.17-.91-.5-1.27-.33-.36-.75-.54-1.24-.54h-23.11c-.49,0-.9.18-1.24.54-.33.36-.5.78-.5,1.27v5.49c0,.49-.18.92-.54,1.27-.36.36-.78.54-1.27.54h-5.29c-.49,0-.92-.18-1.27-.54-.36-.36-.54-.78-.54-1.27v-20.9c0-3.17.58-6.14,1.74-8.91,1.16-2.77,2.75-5.18,4.75-7.23,2.01-2.05,4.35-3.67,7.03-4.86,2.68-1.18,5.56-1.77,8.64-1.77s5.97.59,8.67,1.77c2.7,1.18,5.06,2.8,7.07,4.86,2.01,2.05,3.59,4.47,4.75,7.23,1.16,2.77,1.74,5.74,1.74,8.91v20.9Zm-8.91-20.7c0-2.01-.35-3.91-1.04-5.69-.69-1.79-1.64-3.35-2.85-4.69-1.21-1.34-2.62-2.39-4.25-3.15-1.63-.76-3.36-1.14-5.19-1.14s-3.55.38-5.16,1.14c-1.61.76-3.01,1.79-4.22,3.08-1.21,1.3-2.16,2.82-2.85,4.59-.69,1.76-1.04,3.65-1.04,5.66v3.82c0,.49.17.92.5,1.27.33.36.75.54,1.24.54h23.11c.49,0,.9-.18,1.24-.54.33-.36.5-.78.5-1.27v-3.62Z"/><path class="cls-3" d="m450.77,89.23c-.36.36-.78.54-1.27.54h-40.79c-.49,0-.92-.18-1.27-.54-.36-.36-.54-.78-.54-1.27v-4.42c0-.49.18-.9.54-1.24s.78-.5,1.27-.5h14.2c.49,0,.9-.18,1.24-.54.33-.36.5-.78.5-1.28v-24.91c0-.49-.17-.91-.5-1.24-.33-.33-.75-.5-1.24-.5h-14.2c-.49,0-.92-.18-1.27-.53-.36-.35-.54-.78-.54-1.26v-4.38c0-.49.18-.91.54-1.26.36-.35.78-.53,1.27-.53h40.79c.49,0,.92.18,1.27.53.36.35.54.77.54,1.26v4.38c0,.49-.18.91-.54,1.26-.36.35-.78.53-1.27.53h-14.2c-.49,0-.9.17-1.24.5-.33.34-.5.75-.5,1.24v24.91c0,.49.17.92.5,1.28.33.36.75.54,1.24.54h14.2c.49,0,.92.17,1.27.5s.54.75.54,1.24v4.42c0,.49-.18.92-.54,1.27Z"/></svg>